<?xml version="1.0" encoding="UTF-8"?>
<svg id="Capa_1" data-name="Capa 1" xmlns="http://www.w3.org/2000/svg" xmlns:xlink="http://www.w3.org/1999/xlink" viewBox="0 0 404.24 328.57">
  <defs>
    <style>
      .cls-1 {
        fill: url(#New_Gradient_Swatch_1-2);
      }

      .cls-2 {
        fill: url(#linear-gradient-7);
      }

      .cls-3 {
        fill: url(#linear-gradient-5);
      }

      .cls-4 {
        fill: url(#linear-gradient-6);
      }

      .cls-5 {
        fill: url(#linear-gradient-4);
      }

      .cls-6 {
        fill: url(#linear-gradient-3);
      }

      .cls-7 {
        fill: url(#linear-gradient-2);
      }

      .cls-8 {
        fill: url(#linear-gradient);
      }

      .cls-9 {
        fill: url(#New_Gradient_Swatch_1);
      }

      .cls-10 {
        fill: #737373;
      }
    </style>
    <linearGradient id="linear-gradient" x1="263.28" y1="83.7" x2="178.33" y2="95.08" gradientUnits="userSpaceOnUse">
      <stop offset="0" stop-color="#ccc"/>
      <stop offset="1" stop-color="#737373"/>
    </linearGradient>
    <linearGradient id="linear-gradient-2" x1="122.68" y1="62.78" x2="281.56" y2="62.78" gradientUnits="userSpaceOnUse">
      <stop offset="0" stop-color="#4e6326"/>
      <stop offset="1" stop-color="#c0bf23"/>
    </linearGradient>
    <linearGradient id="linear-gradient-3" x1="251.95" y1="43.53" x2="154.53" y2="20.3" gradientUnits="userSpaceOnUse">
      <stop offset="0" stop-color="#bfbfbf"/>
      <stop offset="1" stop-color="gray"/>
    </linearGradient>
    <linearGradient id="linear-gradient-4" x1="265.29" y1="30.03" x2="220.22" y2="63.83" gradientUnits="userSpaceOnUse">
      <stop offset="0" stop-color="#999"/>
      <stop offset="1" stop-color="#333"/>
    </linearGradient>
    <linearGradient id="New_Gradient_Swatch_1" data-name="New Gradient Swatch 1" x1="202.12" y1="79.49" x2="281.56" y2="79.49" gradientUnits="userSpaceOnUse">
      <stop offset="0" stop-color="#445a24"/>
      <stop offset="1" stop-color="#c0bf23"/>
    </linearGradient>
    <linearGradient id="linear-gradient-5" x1="286.51" y1="112.04" x2="187.51" y2="113.88" xlink:href="#linear-gradient-4"/>
    <linearGradient id="linear-gradient-6" x1="188.98" y1="65.22" x2="113.49" y2="14.74" gradientUnits="userSpaceOnUse">
      <stop offset="0" stop-color="#999"/>
      <stop offset="1" stop-color="#404040"/>
    </linearGradient>
    <linearGradient id="New_Gradient_Swatch_1-2" data-name="New Gradient Swatch 1" x1="122.68" x2="202.12" xlink:href="#New_Gradient_Swatch_1"/>
    <linearGradient id="linear-gradient-7" x1="212.58" y1="145.9" x2="114.74" y2="80.82" xlink:href="#linear-gradient-6"/>
  </defs>
  <g>
    <polygon class="cls-8" points="202.12 52.46 280.48 85.5 202.12 131.32 123.76 85.5 202.12 52.46"/>
    <polygon class="cls-7" points="202.12 30.14 281.56 54.62 202.12 95.42 122.68 54.62 202.12 30.14"/>
    <polygon class="cls-6" points="202.12 5.51 285.66 24.63 202.12 58.58 118.58 24.63 202.12 5.51"/>
    <polygon class="cls-5" points="285.66 33.57 202.12 67.52 202.12 58.58 285.66 24.63 285.66 33.57"/>
    <polygon class="cls-9" points="281.56 63.56 202.12 104.36 202.12 95.42 281.56 54.62 281.56 63.56"/>
    <polygon class="cls-3" points="280.48 94.44 202.12 140.26 202.12 131.32 280.48 85.5 280.48 94.44"/>
    <polygon class="cls-4" points="118.58 33.57 202.12 67.52 202.12 58.58 118.58 24.63 118.58 33.57"/>
    <polygon class="cls-1" points="122.68 63.56 202.12 104.36 202.12 95.42 122.68 54.62 122.68 63.56"/>
    <polygon class="cls-2" points="123.76 94.44 202.12 140.26 202.12 131.32 123.76 85.5 123.76 94.44"/>
  </g>
  <g>
    <path class="cls-10" d="M0,280.74h4.3v15.98H0v-15.98Z"/>
    <path class="cls-10" d="M7.24,280.74h4.41l5.73,9.84h.05v-9.84h4.04v15.98h-4.41l-5.73-9.96h-.05v9.96h-4.04v-15.98Z"/>
    <path class="cls-10" d="M27.76,291.35c.1,1.88,1.3,2.49,3.13,2.49,1.29,0,2.63-.45,2.63-1.64,0-1.41-2.36-1.68-4.74-2.33-2.36-.65-4.83-1.68-4.83-4.62,0-3.49,3.63-4.86,6.73-4.86,3.28,0,6.59,1.55,6.61,5.16h-4.3c.07-1.46-1.34-1.93-2.66-1.93-.92,0-2.08.31-2.08,1.37,0,1.23,2.39,1.45,4.79,2.1,2.38.65,4.78,1.73,4.78,4.62,0,4.05-3.56,5.35-7.19,5.35s-7.15-1.61-7.17-5.71h4.3Z"/>
    <path class="cls-10" d="M52.92,284.32h-4.92v12.41h-4.3v-12.41h-4.92v-3.58h14.15v3.58Z"/>
    <path class="cls-10" d="M54.81,280.74h4.3v15.98h-4.3v-15.98Z"/>
    <path class="cls-10" d="M75.18,284.32h-4.92v12.41h-4.3v-12.41h-4.92v-3.58h14.14v3.58Z"/>
    <path class="cls-10" d="M91.34,290.12c0,4.63-2.19,6.95-7.19,6.95s-7.19-2.31-7.19-6.95v-9.38h4.31v9.62c0,2.06.78,3.12,2.89,3.12s2.89-1.06,2.89-3.12v-9.62h4.3v9.38Z"/>
    <path class="cls-10" d="M107.29,284.32h-4.92v12.41h-4.3v-12.41h-4.92v-3.58h14.15v3.58Z"/>
    <path class="cls-10" d="M116.7,280.39c5.21,0,8.14,3.7,8.14,8.34s-2.94,8.33-8.14,8.33-8.13-3.7-8.13-8.33,2.94-8.34,8.13-8.34ZM116.7,293.48c2.77,0,3.84-2.37,3.84-4.75s-1.07-4.75-3.84-4.75-3.84,2.37-3.84,4.75,1.06,4.75,3.84,4.75Z"/>
    <path class="cls-10" d="M134.45,280.74h7.1c5.06,0,8.09,2.98,8.09,7.92,0,5.25-3.07,8.07-8.09,8.07h-7.1v-15.98ZM138.75,293.14h2.04c3.26-.07,4.55-1.3,4.55-4.51,0-2.9-1.62-4.32-4.55-4.32h-2.04v8.83Z"/>
    <path class="cls-10" d="M152,280.74h13.15v3.33h-8.85v2.8h8.09v3.23h-8.09v3.05h9.08v3.58h-13.38v-15.98Z"/>
    <path class="cls-10" d="M175.12,280.74h4.3v12.4h7.69v3.58h-11.99v-15.98Z"/>
    <path class="cls-10" d="M193.73,280.74h4.37l6.17,15.98h-4.48l-1.02-2.87h-5.75l-1.04,2.87h-4.42l6.18-15.98ZM194,290.77h3.75l-1.83-5.6h-.04l-1.88,5.6Z"/>
    <path class="cls-10" d="M223.76,286.44c-.23-1.61-1.52-2.46-3.33-2.46-2.78,0-3.84,2.37-3.84,4.75s1.06,4.75,3.84,4.75c2.01,0,3.17-1.12,3.33-2.96h4.3c-.23,4.12-3.34,6.54-7.53,6.54-4.99,0-8.23-3.7-8.23-8.33s3.24-8.34,8.23-8.34c3.57,0,7.42,2.2,7.53,6.05h-4.3Z"/>
    <path class="cls-10" d="M237.86,280.39c5.2,0,8.14,3.7,8.14,8.34s-2.94,8.33-8.14,8.33-8.14-3.7-8.14-8.33,2.93-8.34,8.14-8.34ZM237.86,293.48c2.77,0,3.84-2.37,3.84-4.75s-1.06-4.75-3.84-4.75-3.84,2.37-3.84,4.75,1.06,4.75,3.84,4.75Z"/>
    <path class="cls-10" d="M248.29,280.74h4.42l5.73,9.84h.05v-9.84h4.05v15.98h-4.42l-5.74-9.96h-.05v9.96h-4.04v-15.98Z"/>
    <path class="cls-10" d="M268.81,291.35c.09,1.88,1.3,2.49,3.13,2.49,1.29,0,2.63-.45,2.63-1.64,0-1.41-2.36-1.68-4.74-2.33-2.36-.65-4.84-1.68-4.84-4.62,0-3.49,3.63-4.86,6.73-4.86,3.29,0,6.59,1.55,6.61,5.16h-4.3c.07-1.46-1.34-1.93-2.66-1.93-.93,0-2.09.31-2.09,1.37,0,1.23,2.38,1.45,4.79,2.1,2.37.65,4.78,1.73,4.78,4.62,0,4.05-3.56,5.35-7.19,5.35s-7.14-1.61-7.17-5.71h4.3Z"/>
    <path class="cls-10" d="M293.97,284.32h-4.92v12.41h-4.31v-12.41h-4.92v-3.58h14.15v3.58Z"/>
    <path class="cls-10" d="M295.87,280.74h8.41c2.91,0,5.77,1.27,5.77,4.5,0,1.72-.85,3.35-2.59,4.01v.04c1.76.4,2.27,2.31,2.41,3.83.05.68.12,3.02.69,3.61h-4.25c-.38-.54-.43-2.11-.49-2.55-.11-1.62-.39-3.27-2.4-3.27h-3.26v5.82h-4.3v-15.98ZM300.17,287.67h3.61c1.29,0,1.98-.67,1.98-1.88s-.97-1.72-2.17-1.72h-3.41v3.6Z"/>
    <path class="cls-10" d="M326.82,290.12c0,4.63-2.19,6.95-7.19,6.95s-7.19-2.31-7.19-6.95v-9.38h4.3v9.62c0,2.06.78,3.12,2.89,3.12s2.9-1.06,2.9-3.12v-9.62h4.3v9.38Z"/>
    <path class="cls-10" d="M340.64,286.44c-.22-1.61-1.52-2.46-3.33-2.46-2.77,0-3.84,2.37-3.84,4.75s1.06,4.75,3.84,4.75c2.01,0,3.17-1.12,3.33-2.96h4.3c-.22,4.12-3.34,6.54-7.53,6.54-5,0-8.23-3.7-8.23-8.33s3.23-8.34,8.23-8.34c3.56,0,7.42,2.2,7.53,6.05h-4.3Z"/>
    <path class="cls-10" d="M358.19,286.44c-.23-1.61-1.53-2.46-3.33-2.46-2.77,0-3.84,2.37-3.84,4.75s1.06,4.75,3.84,4.75c2.01,0,3.17-1.12,3.33-2.96h4.3c-.22,4.12-3.35,6.54-7.53,6.54-5,0-8.23-3.7-8.23-8.33s3.23-8.34,8.23-8.34c3.55,0,7.41,2.2,7.53,6.05h-4.3Z"/>
    <path class="cls-10" d="M364.78,280.74h4.29v15.98h-4.29v-15.98Z"/>
    <path class="cls-10" d="M379.57,280.39c5.2,0,8.14,3.7,8.14,8.34s-2.94,8.33-8.14,8.33-8.13-3.7-8.13-8.33,2.93-8.34,8.13-8.34ZM379.57,293.48c2.77,0,3.84-2.37,3.84-4.75s-1.06-4.75-3.84-4.75-3.83,2.37-3.83,4.75,1.06,4.75,3.83,4.75Z"/>
    <path class="cls-10" d="M390,280.74h4.42l5.73,9.84h.05v-9.84h4.04v15.98h-4.41l-5.73-9.96h-.05v9.96h-4.04v-15.98Z"/>
    <path class="cls-10" d="M150.07,312.58h13.16v3.34h-8.86v2.79h8.09v3.23h-8.09v3.05h9.08v3.58h-13.39v-15.98Z"/>
    <path class="cls-10" d="M165.86,312.58h4.41l5.74,9.85h.05v-9.85h4.04v15.98h-4.41l-5.74-9.96h-.04v9.96h-4.05v-15.98Z"/>
    <path class="cls-10" d="M193.67,323.2c.09,1.88,1.29,2.48,3.12,2.48,1.29,0,2.63-.44,2.63-1.63,0-1.41-2.36-1.68-4.74-2.33-2.36-.64-4.83-1.67-4.83-4.61,0-3.5,3.63-4.86,6.72-4.86,3.28,0,6.6,1.55,6.62,5.15h-4.3c.07-1.45-1.35-1.92-2.66-1.92-.92,0-2.08.31-2.08,1.37,0,1.23,2.39,1.46,4.79,2.1,2.38.66,4.79,1.73,4.79,4.62,0,4.05-3.57,5.35-7.19,5.35s-7.15-1.61-7.17-5.7h4.3Z"/>
    <path class="cls-10" d="M205.74,312.58h13.15v3.34h-8.86v2.79h8.09v3.23h-8.09v3.05h9.08v3.58h-13.38v-15.98Z"/>
    <path class="cls-10" d="M232.53,318.29c-.23-1.62-1.52-2.46-3.33-2.46-2.78,0-3.84,2.37-3.84,4.75s1.06,4.75,3.84,4.75c2,0,3.17-1.12,3.33-2.96h4.3c-.23,4.12-3.34,6.53-7.53,6.53-4.99,0-8.23-3.7-8.23-8.33s3.24-8.33,8.23-8.33c3.57,0,7.42,2.2,7.53,6.05h-4.3Z"/>
    <path class="cls-10" d="M246.64,312.24c5.2,0,8.14,3.7,8.14,8.33s-2.94,8.33-8.14,8.33-8.14-3.7-8.14-8.33,2.93-8.33,8.14-8.33ZM246.64,325.33c2.77,0,3.83-2.38,3.83-4.75s-1.06-4.75-3.83-4.75-3.84,2.37-3.84,4.75,1.06,4.75,3.84,4.75Z"/>
  </g>
  <path class="cls-10" d="M182.53,240.81h-65.77v-39.41h52.47v-12.63h-65.03v52.04h-13.3v-52.04H25.87v52.04h-13.3v-26.02H0v38.66h38.43v-52.04h39.9v52.04h169.24v-64.68h-65.04v52.04ZM195.09,201.4h40.36v39.41h-40.36v-39.41ZM12.57,188.77H0v12.63h12.57v-12.63ZM404.24,201.4v-12.63h-143.37v38.67h52.31v13.37h-52.31v12.64h65.03v-38.66h-51.77v-13.39h65.08v52.04h65.03v-12.64h-50.96v-13.37h50.96v-12.65h-50.96v-13.39h50.96Z"/>
</svg>