<?xml version="1.0" encoding="UTF-8"?>
<svg id="Capa_1" data-name="Capa 1" xmlns="http://www.w3.org/2000/svg" xmlns:xlink="http://www.w3.org/1999/xlink" viewBox="0 0 404.24 328.57">
  <defs>
    <style>
      .cls-1 {
        fill: url(#linear-gradient-8);
      }

      .cls-2 {
        fill: url(#linear-gradient-7);
      }

      .cls-3 {
        fill: url(#linear-gradient-5);
      }

      .cls-4 {
        fill: url(#linear-gradient-6);
      }

      .cls-5 {
        fill: url(#linear-gradient-9);
      }

      .cls-6 {
        fill: url(#linear-gradient-4);
      }

      .cls-7 {
        fill: url(#linear-gradient-3);
      }

      .cls-8 {
        fill: url(#linear-gradient-2);
      }

      .cls-9 {
        fill: url(#linear-gradient);
      }

      .cls-10 {
        fill: #fff;
      }
    </style>
    <linearGradient id="linear-gradient" x1="263.28" y1="247.23" x2="178.33" y2="235.85" gradientTransform="translate(0 328) scale(1 -1)" gradientUnits="userSpaceOnUse">
      <stop offset="0" stop-color="#ccc"/>
      <stop offset="1" stop-color="#737373"/>
    </linearGradient>
    <linearGradient id="linear-gradient-2" x1="122.68" y1="268.15" x2="281.56" y2="268.15" gradientTransform="translate(0 328) scale(1 -1)" gradientUnits="userSpaceOnUse">
      <stop offset="0" stop-color="#4e6326"/>
      <stop offset="1" stop-color="#c0bf23"/>
    </linearGradient>
    <linearGradient id="linear-gradient-3" x1="251.95" y1="287.4" x2="154.53" y2="310.63" gradientTransform="translate(0 328) scale(1 -1)" gradientUnits="userSpaceOnUse">
      <stop offset="0" stop-color="#bfbfbf"/>
      <stop offset="1" stop-color="gray"/>
    </linearGradient>
    <linearGradient id="linear-gradient-4" x1="265.29" y1="300.9" x2="220.22" y2="267.1" gradientTransform="translate(0 328) scale(1 -1)" gradientUnits="userSpaceOnUse">
      <stop offset="0" stop-color="#999"/>
      <stop offset="1" stop-color="#333"/>
    </linearGradient>
    <linearGradient id="linear-gradient-5" x1="202.12" y1="251.44" x2="281.56" y2="251.44" gradientTransform="translate(0 328) scale(1 -1)" gradientUnits="userSpaceOnUse">
      <stop offset="0" stop-color="#445a24"/>
      <stop offset="1" stop-color="#c0bf23"/>
    </linearGradient>
    <linearGradient id="linear-gradient-6" x1="286.51" y1="218.89" x2="187.51" y2="217.05" xlink:href="#linear-gradient-4"/>
    <linearGradient id="linear-gradient-7" x1="188.98" y1="265.71" x2="113.49" y2="316.19" gradientTransform="translate(0 328) scale(1 -1)" gradientUnits="userSpaceOnUse">
      <stop offset="0" stop-color="#999"/>
      <stop offset="1" stop-color="#404040"/>
    </linearGradient>
    <linearGradient id="linear-gradient-8" x1="122.68" x2="202.12" xlink:href="#linear-gradient-5"/>
    <linearGradient id="linear-gradient-9" x1="212.58" y1="185.03" x2="114.74" y2="250.11" xlink:href="#linear-gradient-7"/>
  </defs>
  <g>
    <polygon class="cls-9" points="202.12 49.53 280.48 82.57 202.12 128.39 123.76 82.57 202.12 49.53"/>
    <polygon class="cls-8" points="202.12 27.21 281.56 51.69 202.12 92.49 122.68 51.69 202.12 27.21"/>
    <polygon class="cls-7" points="202.12 2.58 285.66 21.7 202.12 55.65 118.58 21.7 202.12 2.58"/>
    <polygon class="cls-6" points="285.66 30.64 202.12 64.59 202.12 55.65 285.66 21.7 285.66 30.64"/>
    <polygon class="cls-3" points="281.56 60.63 202.12 101.43 202.12 92.49 281.56 51.69 281.56 60.63"/>
    <polygon class="cls-4" points="280.48 91.51 202.12 137.33 202.12 128.39 280.48 82.57 280.48 91.51"/>
    <polygon class="cls-2" points="118.58 30.64 202.12 64.59 202.12 55.65 118.58 21.7 118.58 30.64"/>
    <polygon class="cls-1" points="122.68 60.63 202.12 101.43 202.12 92.49 122.68 51.69 122.68 60.63"/>
    <polygon class="cls-5" points="123.76 91.51 202.12 137.33 202.12 128.39 123.76 82.57 123.76 91.51"/>
  </g>
  <g>
    <path class="cls-10" d="M0,277.81h4.3v15.98H0v-15.98Z"/>
    <path class="cls-10" d="M7.24,277.81h4.41l5.73,9.84h.05v-9.84h4.04v15.98h-4.41l-5.73-9.96h-.05v9.96h-4.04s0-15.98,0-15.98Z"/>
    <path class="cls-10" d="M27.76,288.42c.1,1.88,1.3,2.49,3.13,2.49,1.29,0,2.63-.45,2.63-1.64,0-1.41-2.36-1.68-4.74-2.33-2.36-.65-4.83-1.68-4.83-4.62,0-3.49,3.63-4.86,6.73-4.86,3.28,0,6.59,1.55,6.61,5.16h-4.3c.07-1.46-1.34-1.93-2.66-1.93-.92,0-2.08.31-2.08,1.37,0,1.23,2.39,1.45,4.79,2.1,2.38.65,4.78,1.73,4.78,4.62,0,4.05-3.56,5.35-7.19,5.35s-7.15-1.61-7.17-5.71h4.3Z"/>
    <path class="cls-10" d="M52.92,281.39h-4.92v12.41h-4.3v-12.41h-4.92v-3.58h14.15v3.58h-.01Z"/>
    <path class="cls-10" d="M54.81,277.81h4.3v15.98h-4.3v-15.98Z"/>
    <path class="cls-10" d="M75.18,281.39h-4.92v12.41h-4.3v-12.41h-4.92v-3.58h14.14v3.58Z"/>
    <path class="cls-10" d="M91.34,287.19c0,4.63-2.19,6.95-7.19,6.95s-7.19-2.31-7.19-6.95v-9.38h4.31v9.62c0,2.06.78,3.12,2.89,3.12s2.89-1.06,2.89-3.12v-9.62h4.3v9.38h0Z"/>
    <path class="cls-10" d="M107.29,281.39h-4.92v12.41h-4.3v-12.41h-4.92v-3.58h14.15v3.58h-.01Z"/>
    <path class="cls-10" d="M116.7,277.46c5.21,0,8.14,3.7,8.14,8.34s-2.94,8.33-8.14,8.33-8.13-3.7-8.13-8.33,2.94-8.34,8.13-8.34ZM116.7,290.55c2.77,0,3.84-2.37,3.84-4.75s-1.07-4.75-3.84-4.75-3.84,2.37-3.84,4.75,1.06,4.75,3.84,4.75Z"/>
    <path class="cls-10" d="M134.45,277.81h7.1c5.06,0,8.09,2.98,8.09,7.92,0,5.25-3.07,8.07-8.09,8.07h-7.1v-15.98h0ZM138.75,290.21h2.04c3.26-.07,4.55-1.3,4.55-4.51,0-2.9-1.62-4.32-4.55-4.32h-2.04v8.83h0Z"/>
    <path class="cls-10" d="M152,277.81h13.15v3.33h-8.85v2.8h8.09v3.23h-8.09v3.05h9.08v3.58h-13.38v-15.98h0Z"/>
    <path class="cls-10" d="M175.12,277.81h4.3v12.4h7.69v3.58h-11.99v-15.98h0Z"/>
    <path class="cls-10" d="M193.73,277.81h4.37l6.17,15.98h-4.48l-1.02-2.87h-5.75l-1.04,2.87h-4.42l6.18-15.98h0ZM194,287.84h3.75l-1.83-5.6h-.04l-1.88,5.6Z"/>
    <path class="cls-10" d="M223.76,283.51c-.23-1.61-1.52-2.46-3.33-2.46-2.78,0-3.84,2.37-3.84,4.75s1.06,4.75,3.84,4.75c2.01,0,3.17-1.12,3.33-2.96h4.3c-.23,4.12-3.34,6.54-7.53,6.54-4.99,0-8.23-3.7-8.23-8.33s3.24-8.34,8.23-8.34c3.57,0,7.42,2.2,7.53,6.05h-4.3Z"/>
    <path class="cls-10" d="M237.86,277.46c5.2,0,8.14,3.7,8.14,8.34s-2.94,8.33-8.14,8.33-8.14-3.7-8.14-8.33,2.93-8.34,8.14-8.34ZM237.86,290.55c2.77,0,3.84-2.37,3.84-4.75s-1.06-4.75-3.84-4.75-3.84,2.37-3.84,4.75,1.06,4.75,3.84,4.75Z"/>
    <path class="cls-10" d="M248.29,277.81h4.42l5.73,9.84h.05v-9.84h4.05v15.98h-4.42l-5.74-9.96h-.05v9.96h-4.04v-15.98h0Z"/>
    <path class="cls-10" d="M268.81,288.42c.09,1.88,1.3,2.49,3.13,2.49,1.29,0,2.63-.45,2.63-1.64,0-1.41-2.36-1.68-4.74-2.33-2.36-.65-4.84-1.68-4.84-4.62,0-3.49,3.63-4.86,6.73-4.86,3.29,0,6.59,1.55,6.61,5.16h-4.3c.07-1.46-1.34-1.93-2.66-1.93-.93,0-2.09.31-2.09,1.37,0,1.23,2.38,1.45,4.79,2.1,2.37.65,4.78,1.73,4.78,4.62,0,4.05-3.56,5.35-7.19,5.35s-7.14-1.61-7.17-5.71h4.32Z"/>
    <path class="cls-10" d="M293.97,281.39h-4.92v12.41h-4.31v-12.41h-4.92v-3.58h14.15v3.58h0Z"/>
    <path class="cls-10" d="M295.87,277.81h8.41c2.91,0,5.77,1.27,5.77,4.5,0,1.72-.85,3.35-2.59,4.01v.04c1.76.4,2.27,2.31,2.41,3.83.05.68.12,3.02.69,3.61h-4.25c-.38-.54-.43-2.11-.49-2.55-.11-1.62-.39-3.27-2.4-3.27h-3.26v5.82h-4.3v-15.98h0ZM300.17,284.74h3.61c1.29,0,1.98-.67,1.98-1.88s-.97-1.72-2.17-1.72h-3.41v3.6h0Z"/>
    <path class="cls-10" d="M326.82,287.19c0,4.63-2.19,6.95-7.19,6.95s-7.19-2.31-7.19-6.95v-9.38h4.3v9.62c0,2.06.78,3.12,2.89,3.12s2.9-1.06,2.9-3.12v-9.62h4.3v9.38h0Z"/>
    <path class="cls-10" d="M340.64,283.51c-.22-1.61-1.52-2.46-3.33-2.46-2.77,0-3.84,2.37-3.84,4.75s1.06,4.75,3.84,4.75c2.01,0,3.17-1.12,3.33-2.96h4.3c-.22,4.12-3.34,6.54-7.53,6.54-5,0-8.23-3.7-8.23-8.33s3.23-8.34,8.23-8.34c3.56,0,7.42,2.2,7.53,6.05h-4.3Z"/>
    <path class="cls-10" d="M358.19,283.51c-.23-1.61-1.53-2.46-3.33-2.46-2.77,0-3.84,2.37-3.84,4.75s1.06,4.75,3.84,4.75c2.01,0,3.17-1.12,3.33-2.96h4.3c-.22,4.12-3.35,6.54-7.53,6.54-5,0-8.23-3.7-8.23-8.33s3.23-8.34,8.23-8.34c3.55,0,7.41,2.2,7.53,6.05h-4.3Z"/>
    <path class="cls-10" d="M364.78,277.81h4.29v15.98h-4.29v-15.98Z"/>
    <path class="cls-10" d="M379.57,277.46c5.2,0,8.14,3.7,8.14,8.34s-2.94,8.33-8.14,8.33-8.13-3.7-8.13-8.33,2.93-8.34,8.13-8.34ZM379.57,290.55c2.77,0,3.84-2.37,3.84-4.75s-1.06-4.75-3.84-4.75-3.83,2.37-3.83,4.75,1.06,4.75,3.83,4.75Z"/>
    <path class="cls-10" d="M390,277.81h4.42l5.73,9.84h.05v-9.84h4.04v15.98h-4.41l-5.73-9.96h-.05v9.96h-4.04v-15.98h-.01Z"/>
    <path class="cls-10" d="M150.07,309.65h13.16v3.34h-8.86v2.79h8.09v3.23h-8.09v3.05h9.08v3.58h-13.39v-15.98h0Z"/>
    <path class="cls-10" d="M165.86,309.65h4.41l5.74,9.85h.05v-9.85h4.04v15.98h-4.41l-5.74-9.96h-.04v9.96h-4.05v-15.98Z"/>
    <path class="cls-10" d="M193.67,320.27c.09,1.88,1.29,2.48,3.12,2.48,1.29,0,2.63-.44,2.63-1.63,0-1.41-2.36-1.68-4.74-2.33-2.36-.64-4.83-1.67-4.83-4.61,0-3.5,3.63-4.86,6.72-4.86,3.28,0,6.6,1.55,6.62,5.15h-4.3c.07-1.45-1.35-1.92-2.66-1.92-.92,0-2.08.31-2.08,1.37,0,1.23,2.39,1.46,4.79,2.1,2.38.66,4.79,1.73,4.79,4.62,0,4.05-3.57,5.35-7.19,5.35s-7.15-1.61-7.17-5.7h4.3v-.02Z"/>
    <path class="cls-10" d="M205.74,309.65h13.15v3.34h-8.86v2.79h8.09v3.23h-8.09v3.05h9.08v3.58h-13.38v-15.98h.01Z"/>
    <path class="cls-10" d="M232.53,315.36c-.23-1.62-1.52-2.46-3.33-2.46-2.78,0-3.84,2.37-3.84,4.75s1.06,4.75,3.84,4.75c2,0,3.17-1.12,3.33-2.96h4.3c-.23,4.12-3.34,6.53-7.53,6.53-4.99,0-8.23-3.7-8.23-8.33s3.24-8.33,8.23-8.33c3.57,0,7.42,2.2,7.53,6.05h-4.3Z"/>
    <path class="cls-10" d="M246.64,309.31c5.2,0,8.14,3.7,8.14,8.33s-2.94,8.33-8.14,8.33-8.14-3.7-8.14-8.33,2.93-8.33,8.14-8.33ZM246.64,322.4c2.77,0,3.83-2.38,3.83-4.75s-1.06-4.75-3.83-4.75-3.84,2.37-3.84,4.75,1.06,4.75,3.84,4.75Z"/>
  </g>
  <path class="cls-10" d="M182.53,237.88h-65.77v-39.41h52.47v-12.63h-65.03v52.04h-13.3v-52.04H25.87v52.04h-13.3v-26.02H0v38.66h38.43v-52.04h39.9v52.04h169.24v-64.68h-65.04v52.04h0ZM195.09,198.47h40.36v39.41h-40.36v-39.41ZM12.57,185.84H0v12.63h12.57v-12.63ZM404.24,198.47v-12.63h-143.37v38.67h52.31v13.37h-52.31v12.64h65.03v-38.66h-51.77v-13.39h65.08v52.04h65.03v-12.64h-50.96v-13.37h50.96v-12.65h-50.96v-13.39h50.96,0Z"/>
</svg>